<svg t="1717569575230" class="icon" viewBox="0 0 1024 1024" version="1.1"
    xmlns="http://www.w3.org/2000/svg" p-id="1465" width="18" height="18">
    <path
        d="M285.013333 299.008a30.208 30.208 0 0 0-43.008 0L50.176 490.666667a30.378667 30.378667 0 0 0 0 42.837333l191.829333 191.488A30.378667 30.378667 0 0 0 285.013333 682.666667l-170.666666-170.666667 170.666666-170.666667a30.378667 30.378667 0 0 0 0-42.325333zM973.824 490.666667L781.994667 299.008A30.378667 30.378667 0 0 0 738.986667 341.333333l170.666666 170.666667-170.666666 170.666667a30.378667 30.378667 0 0 0 43.008 42.837333l191.829333-192a30.378667 30.378667 0 0 0 0-42.837333zM609.621333 283.818667l-213.333333 374.442666-30.549333 53.589334c-17.92 31.402667 30.72 59.904 48.64 28.330666l213.333333-374.442666 30.549333-53.589334c17.066667-31.402667-30.72-59.904-48.64-28.330666z"
        fill="currentColor" p-id="1466"></path>
</svg>