<svg t="1717576089418" class="icon" viewBox="0 0 1024 1024" version="1.1"
    xmlns="http://www.w3.org/2000/svg" p-id="8767" width="200" height="200">
    <path
        d="M490.453333 635.456c-9.386667-7.573333-15.04-17.066667-15.04-30.336 0-20.864 16.896-37.930667 37.546667-37.930667 20.672 0 37.546667 17.066667 37.546667 37.930667 0 13.269333-5.610667 22.762667-14.997334 30.336l50.688 180.16c3.754667 13.269333 0 26.538667-9.386666 36.010667l-50.688 51.2a18.026667 18.026667 0 0 1-26.304 0l-50.688-51.2c-9.386667-9.472-13.141333-22.741333-9.386667-36.010667l50.688-180.16z m-142.634666-161.386667c-60.394667-49.28-100.032-123.242667-100.032-208.597333C247.786667 119.466667 366.677333 0 512 0c145.301333 0 264.213333 119.466667 264.213333 265.472 0 83.456-39.637333 159.296-100.032 208.597333C864.896 529.066667 1002.666667 703.530667 1002.666667 910.229333 1002.666667 972.8 951.701333 1024 889.429333 1024H134.570667C72.277333 1024 21.333333 972.8 21.333333 910.229333c0-206.72 137.770667-381.162667 326.485334-436.16z m165.973333-6.442666a202.666667 202.666667 0 1 0 0-405.333334 202.666667 202.666667 0 0 0 0 405.333334zM899.882667 960c21.333333 0 38.784-18.346667 38.784-40.746667C938.666667 695.296 764.117333 512 550.784 512h-77.568C259.882667 512 85.333333 695.274667 85.333333 919.253333 85.333333 941.653333 102.784 960 124.117333 960h775.765334z"
        fill="currentColor" p-id="8768"></path>
</svg>