<svg t="1717577716982" class="icon" viewBox="0 0 1049 1024" version="1.1"
    xmlns="http://www.w3.org/2000/svg" p-id="1061" width="200" height="200">
    <path
        d="M523.1616 124.5184l-7.936 0.768c-30.6688 3.2512-51.8144 9.728-71.8592 21.0944l-6.5024 3.8656-5.0176-1.152c-40.5504-8.8576-77.568-7.168-108.416 9.728a107.5968 107.5968 0 0 0-52.6592 70.272l-1.3312 5.7088c-8.1664 39.7312 4.7872 76.7744 35.7632 120.1152l4.4544 6.1184-2.5344 1.92C199.2192 443.904 123.9808 555.2128 129.536 695.296l0.5632 10.752c14.976 140.2112 86.6048 214.7072 208.6912 214.7072h389.888c9.472-0.256 21.1968-1.6384 35.1488-5.0176a194.176 194.176 0 0 0 62.848-27.4432c55.168-37.0176 88.6784-101.0944 90.7776-195.5584l0.128-10.1376c-0.0512-144.4352-70.3232-250.7776-167.0144-321.8176l-8.1152-5.8112 3.84-6.144c32.2304-53.12 40.8064-101.632 16.3328-150.7328a105.3184 105.3184 0 0 0-67.0208-56.9088l-6.3232-1.536c-25.3952-5.3504-51.456-1.664-77.056 7.936l-0.256-0.2048a144.3072 144.3072 0 0 0-81.2032-23.2192l-7.6032 0.3328z m3.5328 45.952c24.576-1.6896 48.896 5.9392 68.096 21.3248a23.04 23.04 0 0 0 23.936 2.9952c22.656-10.2656 45.44-14.3872 64.5632-9.1904a59.5712 59.5712 0 0 1 37.7856 32.4352c19.072 38.272 7.5008 78.6432-29.3632 129.6896a23.04 23.04 0 0 0 6.2976 32.9216c100.8896 64.256 176.5632 166.9632 173.3888 311.0912-1.792 79.7952-27.9808 129.8432-70.4 158.336-26.1376 17.536-53.1712 24.064-72.96 24.6272H338.7904c-94.7456 0-147.8144-52.9408-161.8432-164.8384l-0.9216-7.8848c-8.7808-134.2208 69.3504-241.5872 179.6608-317.1584a23.04 23.04 0 0 0 4.8128-33.5872c-38.1696-46.592-52.992-79.744-44.928-111.36 3.9936-17.664 14.8992-32.256 30.1312-40.704 21.8624-11.9808 53.1456-11.8016 89.2416-1.8432a23.04 23.04 0 0 0 19.328-3.328l4.0448-2.7648c17.3568-11.4176 33.3824-17.152 61.952-20.1472l6.4-0.6144z"
        fill="currentColor" p-id="1062"></path>
    <path
        d="M560.3584 456.8064a23.04 23.04 0 0 1 40.2688 22.2208l-1.408 2.5344-57.472 90.2912a23.04 23.04 0 0 1-36.6592 2.9184l-1.8688-2.4064-57.4464-85.1712a23.04 23.04 0 0 1 36.4288-28.0576l1.792 2.304 37.76 55.9872 38.6048-60.6208z"
        fill="currentColor" p-id="1063"></path>
    <path
        d="M522.3168 550.1952a23.04 23.04 0 0 1 22.8608 20.1472l0.1792 2.8928v182.3744a23.04 23.04 0 0 1-45.9008 2.8928l-0.1792-2.8928v-182.3744a23.04 23.04 0 0 1 23.04-23.04z"
        fill="currentColor" p-id="1064"></path>
    <path
        d="M611.072 645.4528a23.04 23.04 0 0 1 2.8928 45.9008l-2.8928 0.1792h-177.5104a23.04 23.04 0 0 1-2.8672-45.9008l2.8672-0.1792h177.5104zM611.072 550.1952a23.04 23.04 0 0 1 2.8928 45.9008l-2.8928 0.1792h-177.5104a23.04 23.04 0 0 1-2.8672-45.9008l2.8672-0.1792h177.5104z"
        fill="currentColor" p-id="1065"></path>
</svg>