<svg t="1717577578094" class="icon" viewBox="0 0 1024 1024" version="1.1"
    xmlns="http://www.w3.org/2000/svg" p-id="47077" width="200" height="200">
    <path
        d="M338.3808 130.56h475.2896c84.5056 0.0512 153.344 67.1744 156.4672 151.2192l0.1024 5.7344v474.624c-0.1024 84.7104-67.072 153.728-150.8608 156.8l-5.7344 0.1024H338.3552c-84.48-0.0512-153.344-67.1744-156.4928-151.1936L181.76 762.112V632.32a23.04 23.04 0 0 1 45.9008-2.8928l0.1792 2.8928v129.7408a110.8736 110.8736 0 0 0 105.1904 110.7712l5.3504 0.128h475.264a110.7968 110.7968 0 0 0 110.3872-105.472l0.128-5.376V287.5392a110.848 110.848 0 0 0-105.1648-110.7712l-5.3504-0.128H338.3808a110.848 110.848 0 0 0-110.3872 105.5232l-0.128 5.376-0.0256 116.0192a23.04 23.04 0 0 1-45.9008 2.8928l-0.1792-2.8928V287.488c0.1536-84.736 67.072-153.728 150.8608-156.8256l5.76-0.1024z"
        fill="currentColor" p-id="47078"></path>
    <path
        d="M289.5872 317.952a23.04 23.04 0 0 1 37.0944 27.1616l-1.8688 2.5344-74.8544 88.832c-11.5712 13.7472-27.8528 21.76-45.1584 21.76a58.4704 58.4704 0 0 1-41.8816-18.1504l-3.2512-3.584-74.88-88.8576a23.04 23.04 0 0 1 33.0496-31.9488l2.176 2.2528 74.9056 88.8832c3.0208 3.584 6.528 5.3248 9.8816 5.3248a12.1344 12.1344 0 0 0 8.0128-3.4048l1.8944-1.9456 74.88-88.8576z"
        fill="currentColor" p-id="47079"></path>
    <path
        d="M621.568 344.576a23.04 23.04 0 0 1 38.4512 25.2416l-1.5872 2.4064-76.8 102.4a23.04 23.04 0 0 1-34.4832 2.7136l-1.9968-2.2016-76.8-96.5888a23.04 23.04 0 0 1 34.1504-30.8224l1.9456 2.1504 58.2144 73.216 58.9056-78.5152z"
        fill="currentColor" p-id="47080"></path>
    <path
        d="M576 437.76a23.04 23.04 0 0 1 22.8608 20.1472L599.04 460.8v230.4a23.04 23.04 0 0 1-45.9008 2.8928L552.96 691.2v-230.4a23.04 23.04 0 0 1 23.04-23.04z"
        fill="currentColor" p-id="47081"></path>
    <path
        d="M691.2 552.96a23.04 23.04 0 0 1 2.8928 45.9008L691.2 599.04h-230.4a23.04 23.04 0 0 1-2.8928-45.9008L460.8 552.96h230.4zM691.2 450.56a23.04 23.04 0 0 1 2.8928 45.9008L691.2 496.64h-230.4a23.04 23.04 0 0 1-2.8928-45.9008L460.8 450.56h230.4z"
        fill="currentColor" p-id="47082"></path>
</svg>