<svg t="1713926384810" class="icon" viewBox="0 0 1031 1024" version="1.1" xmlns="http://www.w3.org/2000/svg" p-id="2615" width="200" height="200"><path d="M826.543866 866.189701a75.647344 75.647344 0 0 0 75.53691-75.426476V557.13993a75.481693 75.481693 0 0 0-150.908169 0.055217v233.568078c0 41.523214 33.792828 75.371259 75.371259 75.426476zM567.741602 866.189701c41.633648 0 75.481693-33.792828 75.481693-75.426476V260.237908c0-41.523214-33.792828-75.371259-75.371259-75.426476a75.647344 75.647344 0 0 0-75.536911 75.426476v530.525317a75.647344 75.647344 0 0 0 75.426477 75.426476z" fill="#4DA1FF" p-id="2616"></path><path d="M946.475276 879.773092H164.601995L164.491561 91.936371A66.039579 66.039579 0 0 0 90.776813 18.166406 65.818711 65.818711 0 0 0 46.547964 43.069291a64.1622 64.1622 0 0 0-13.693825 46.82405v843.605931a69.0213 69.0213 0 0 0 65.873928 72.00302c2.760852 0 5.41127-0.165651 4.086061-0.496954 3.036937 0.386519 6.073874 0.496953 9.166028 0.496954l831.402966-0.276085a63.554813 63.554813 0 0 0 23.080723 0 63.720464 63.720464 0 0 0 51.130978-74.046051c-6.294743-34.51065-39.645834-57.370504-71.119547-51.407064z" fill="#4DA1FF" p-id="2617"></path><path d="M319.264923 865.913616c41.633648 0 75.481693-33.792828 75.481693-75.426477v-156.871609c0-41.578431-33.792828-75.371259-75.316042-75.371259a74.156484 74.156484 0 0 0-75.592127 75.371259v157.147695a75.647344 75.647344 0 0 0 75.426476 75.150391z" fill="#4DA1FF" p-id="2618"></path></svg>