<svg t="1715830171079" class="icon" viewBox="0 0 1024 1024" version="1.1" xmlns="http://www.w3.org/2000/svg" p-id="46654" width="256" height="256"><path d="M522.752 186.88L446.976 262.656h151.552zM475.648 276.992h94.72v75.776H475.648zM437.76 361.984h170.496v37.888H437.76zM465.92 409.6h113.664v85.504H465.92zM446.976 504.32h151.552V599.04H446.976zM437.76 608.768h170.496v85.504H437.76zM216.17664 205.34272l3.33824-8.58624 170.35776 66.23744-3.33824 8.59136zM203.776 305.152H384v9.728H203.776zM220.63104 419.60448l170.35264-66.24256 3.34336 8.59136L223.96928 428.1856zM651.67872 263.03488l170.30144-66.4064 3.5328 9.0624-170.30144 66.4064zM658.432 305.152h180.224v9.728h-180.224zM647.10656 361.63584l3.52256-9.0624 170.35776 66.23744-3.52768 9.0624z" fill="#1296db" p-id="46655"></path><path d="M876.032 779.264c-43.008 0-65.536 22.016-82.432 37.888-13.312 12.8-19.968 18.944-36.352 18.944-16.384 0-23.04-6.656-36.352-18.944-16.384-15.872-39.424-37.888-82.432-37.888-43.008 0-65.536 22.016-82.432 37.888-13.312 12.8-19.968 18.944-36.352 18.944-16.384 0-23.04-6.656-36.352-19.456-16.384-15.872-39.424-37.888-82.432-37.888-43.008 0-65.536 22.016-81.92 37.888-13.312 12.8-19.968 18.944-36.352 18.944-16.384 0-23.04-6.656-36.352-18.944-16.384-15.872-39.424-37.888-81.92-37.888h-9.728v66.56h9.728c16.384 0 23.04 6.656 36.352 18.944 16.384 15.872 39.424 37.888 81.92 37.888 43.008 0 65.536-22.016 81.92-37.888 13.312-12.8 19.968-18.944 36.352-18.944 16.384 0 23.04 6.656 36.352 19.456 16.384 15.872 39.424 37.888 82.432 37.888 43.008 0 65.536-22.016 82.432-37.888 13.312-12.8 19.968-18.944 36.352-18.944 16.384 0 23.04 6.656 36.352 18.944 16.384 15.872 39.424 37.888 82.432 37.888 43.008 0 65.536-22.016 82.432-37.888 13.312-12.8 19.968-18.944 36.352-18.944h9.728v-66.56h-9.728z" fill="#1296db" p-id="46656"></path><path d="M491.008 805.376c13.824 13.312 17.92 16.384 29.696 16.384s15.872-3.584 29.696-16.384c16.896-15.872 41.984-40.448 88.576-40.448 25.088 0 44.032 7.168 58.88 15.872v-77.824H347.648V778.24c14.336-7.68 31.744-13.824 54.784-13.824 46.592 0.512 72.192 24.576 88.576 40.96z" fill="#1296db" p-id="46657"></path></svg>