<svg t="1717577027373" class="icon" viewBox="0 0 1024 1024" version="1.1"
    xmlns="http://www.w3.org/2000/svg" p-id="34778" width="200" height="200">
    <path
        d="M512.980327 64.636113c-246.706845 0-447.421192 200.714348-447.421192 447.421192 0 246.700705 200.714348 447.415053 447.421192 447.415053s447.421192-200.714348 447.421193-447.415053c0-246.706845-200.715371-447.421192-447.421193-447.421192z m0 833.54532c-212.913181 0-386.130268-173.21811-386.130267-386.125151 0-212.913181 173.21811-386.130268 386.130267-386.130268s386.130268 173.21811 386.130268 386.130268c0 212.908064-173.21811 386.125151-386.130268 386.125151z"
        fill="currentColor" p-id="34779"></path>
    <path
        d="M606.931093 640.392182c-11.621688 0-55.209416 68.771293-79.423911 68.771293-6.780427 0-9.685593-5.813403-9.685593-11.624758 0-13.558807 8.715499-33.899064 13.558807-45.520753l57.147558-156.913773c28.088732-77.487815-8.717546-98.795097-42.617633-98.795097-46.491871 0-88.142479 23.245424-120.105449 54.240345-10.654664 10.654664-45.523823 44.554752-45.523823 59.083654 0 4.844332 4.843308 10.655687 10.655688 10.655687 14.528901 0 52.302203-69.739341 82.328053-69.739341 5.814426 0 13.561877 6.780427 7.751545 21.309329L426.773943 612.304474c-5.811356 13.558807-32.93204 79.423911-32.93204 118.167306 0 30.994921 19.373233 44.554752 48.432059 44.554752 80.391958 0 174.34477-99.765191 174.34477-123.009591-0.002047-6.780427-5.814426-11.624758-9.687639-11.624759zM590.464049 249.081938c-35.836183 0-65.86408 28.088732-65.86408 63.927985 0 32.93204 21.310352 55.210439 54.242392 54.239322 36.805254 0 66.832128-27.120684 66.832128-63.927985 0-32.92897-23.24747-54.239322-55.21044-54.239322z"
        fill="currentColor" p-id="34780"></path>
</svg>