<svg t="1717576647982" class="icon" viewBox="0 0 1024 1024" version="1.1"
    xmlns="http://www.w3.org/2000/svg" p-id="24835" width="200" height="200">
    <path
        d="M513.896296 218.074074c162.133333 0 292.977778 131.792593 292.977778 292.977778s-131.792593 293.925926-292.977778 293.925926-293.925926-131.792593-293.925926-293.925926S351.762963 218.074074 513.896296 218.074074m0-45.511111c-186.785185 0-338.488889 151.703704-338.488889 338.488889s151.703704 338.488889 338.488889 338.488889c186.785185 0 338.488889-151.703704 338.488889-338.488889s-151.703704-338.488889-338.488889-338.488889z"
        fill="currentColor" p-id="24836"></path>
    <path
        d="M677.925926 685.511111c0 16.118519-9.481481 24.651852-28.444445 24.651852-7.585185 0-12.325926-6.637037-15.17037-19.911111-2.844444-14.222222-4.740741-28.444444-7.585185-42.666667-3.792593-16.118519-7.585185-30.340741-13.274074-41.718518-18.014815-41.718519-46.459259-62.577778-84.385185-62.577778H403.911111v141.274074c0 17.066667-7.585185 25.6-21.807407 25.6-14.222222 0-21.807407-8.533333-21.807408-25.6V342.281481c0-17.066667 8.533333-25.6 25.6-25.6h184.888889c28.444444 0 53.096296 9.481481 73.007408 29.392593 19.911111 19.911111 30.340741 43.614815 30.34074 72.059259 0 24.651852-8.533333 46.459259-24.651852 66.370371-13.274074 16.118519-33.185185 28.444444-58.785185 36.977777 21.807407 10.42963 38.874074 24.651852 50.251852 42.666667 9.481481 15.17037 18.014815 35.081481 24.651852 57.837037 8.533333 24.651852 12.325926 45.511111 12.325926 63.525926z m-49.303704-265.481481c0-18.014815-6.637037-33.185185-18.014815-43.614815-12.325926-11.377778-27.496296-17.066667-45.511111-17.066667H414.340741c-6.637037 0-10.42963 2.844444-10.42963 9.481482v129.896296h126.103704c17.066667 0 32.237037-2.844444 47.407407-9.481482 17.066667-7.585185 29.392593-17.066667 37.925926-31.288888 8.533333-12.325926 13.274074-25.6 13.274074-37.925926z"
        fill="currentColor" p-id="24837"></path>
</svg>