<svg t="1717577337830" class="icon" viewBox="0 0 1024 1024" version="1.1"
    xmlns="http://www.w3.org/2000/svg" p-id="39980" width="200" height="200">
    <path
        d="M777 891c-99 0-179.5-80.52-179.5-179.5S678.05 532 777 532s179.5 80.52 179.5 179.5S876 891 777 891z m0-285.94A106.44 106.44 0 1 0 883.46 711.5 106.57 106.57 0 0 0 777 605.06z"
        fill="currentColor" p-id="39981"></path>
    <path
        d="M744.22 634.9a26.57 26.57 0 1 1-26.56 26.56 26.6 26.6 0 0 1 26.56-26.56zM815.7 788.11a26.57 26.57 0 1 1 26.58-26.57 26.6 26.6 0 0 1-26.58 26.57zM701.24 762.83l130.057-130.058 27.408 27.408-130.058 130.058zM171.05 492.4l49.59-3.74c1.09 9.74 3.26 17.17 6.56 22.28q8.06 12.38 23 12.39 11.16 0 17.22-6.35a20.66 20.66 0 0 0 0.28-28.89q-5.7-6.27-26.7-11.83-34.27-9.35-48.89-24.79T177.38 412a61.9 61.9 0 0 1 7.53-29.71 53.16 53.16 0 0 1 22.67-22q15.15-8 41.49-8 32.32 0 49.3 14.55t20.2 46.31l-49.13 3.48q-1.95-13.78-8.24-20c-4.17-4.18-9.95-6.26-17.3-6.26q-9.1 0-13.7 4.65a15.57 15.57 0 0 0-4.6 11.35 12.19 12.19 0 0 0 3.8 8.77q3.66 4 17.48 7.53 34.19 8.91 49 18t21.53 22.64a66.9 66.9 0 0 1 6.73 30.22 74.9 74.9 0 0 1-9 36.21A60.37 60.37 0 0 1 290 554.87q-16.11 8.57-40.62 8.56-43 0-59.6-20t-18.73-51.03zM350.57 355.78h52.12V433l54.6-77.17h69.33l-61.55 77.06L529.39 560h-64.2l-35.57-84-26.93 34.14V560h-52.12zM656.43 355.78h52v121.64a122.46 122.46 0 0 1-4.65 34.18 77.8 77.8 0 0 1-14.63 28.11q-10 12-20.89 16.91-15.16 6.82-36.48 6.81a189 189 0 0 1-26.86-2.09q-14.55-2.08-24.33-8.27a64.93 64.93 0 0 1-17.89-17.61 68.82 68.82 0 0 1-11.11-23.53q-4.85-19.47-4.84-34.51V355.78h52v124.55q0 16.69 7.65 26.09t21.23 9.39q13.46 0 21.11-9.26t7.66-26.22z"
        fill="currentColor" p-id="39982"></path>
    <path
        d="M539.86 755.56H104A36.53 36.53 0 0 1 67.47 719V237.17A36.53 36.53 0 0 1 104 200.63h674.58a36.54 36.54 0 0 1 36.53 36.54V466a36.53 36.53 0 1 1-73.06 0V273.7H140.53v408.8h399.33a36.53 36.53 0 0 1 0 73.06z"
        fill="currentColor" p-id="39983"></path>
</svg>