<svg t="1717577150295" class="icon" viewBox="0 0 1024 1024" version="1.1"
    xmlns="http://www.w3.org/2000/svg" p-id="36674" width="200" height="200">
    <path
        d="M902.144 183.296H119.296c-30.72 0-56.32 25.088-56.32 56.32v64c0 30.208 24.064 54.784 53.76 55.808v498.176c0 35.328 28.672 64 64 64h659.456c35.328 0 64-28.672 64-64v-496.64-1.536c29.696-1.024 53.76-25.6 53.76-55.808V239.616c0.512-31.232-24.576-56.32-55.808-56.32z m-782.848 56.32h782.848v64H119.296V239.616z m729.088 617.984c0 4.096-3.584 7.68-7.68 7.68H180.736c-4.096 0-7.68-3.584-7.68-7.68v-496.64-1.536h675.328v498.176z"
        fill="currentColor" p-id="36675"></path>
    <path
        d="M249.344 712.704l0.512-44.544c14.336 7.168 39.936 12.8 57.344 12.8 22.016 0 32.768-8.704 32.768-25.088 0-39.424-88.576-8.704-88.576-100.352 0-40.448 28.672-65.024 76.288-65.024 17.408 0 35.84 2.56 54.784 8.704l-0.512 42.496c-15.872-4.608-37.888-8.192-49.664-8.192-18.432 0-28.16 7.68-28.16 22.016 0 18.944 18.944 23.552 41.984 32.768 25.088 10.24 46.592 24.576 46.592 65.536 0 43.52-28.672 70.656-75.776 70.656-20.992 0-43.008-4.096-67.584-11.776zM414.72 494.592c18.944-3.072 39.424-4.608 58.88-4.608 71.68 0 101.888 24.064 101.888 81.408 0 56.32-29.696 80.384-98.816 80.384h-9.216v68.608H414.72V494.592z m106.496 76.8c0-28.672-9.216-38.4-39.424-38.4-4.608 0-11.264 0.512-14.336 1.024v74.24c4.096 0.512 10.752 1.024 15.36 1.024 29.184 0.512 38.4-8.704 38.4-37.888zM595.968 633.856V493.568h52.736v136.704c0 35.328 9.216 49.152 34.304 49.152 25.6 0 34.304-12.8 34.304-49.152V493.568h52.736v140.288c0 60.928-22.528 90.112-87.04 90.112-64-0.512-87.04-29.696-87.04-90.112z"
        fill="currentColor" p-id="36676"></path>
</svg>